PathFileType	4	(X/Y/Z)	pose_F01_0-89.trc
DataRate	CameraRate	NumFrames	NumMarkers	Units	OrigDataRate	OrigDataStartFrame	OrigNumFrames
30	30	8	21	m	30	74	89
Frame#	Time	CHip			RHip			RKnee			RAnkle			RBigToe			RSmallToe			RHeel			LHip			LKnee			LAnkle			LBigToe			LSmallToe			LHeel			Neck			Nose			RShoulder			RElbow			RWrist			LShoulder			LElbow			LWrist			
		X1	Y1	Z1	X2	Y2	Z2	X3	Y3	Z3	X4	Y4	Z4	X5	Y5	Z5	X6	Y6	Z6	X7	Y7	Z7	X8	Y8	Z8	X9	Y9	Z9	X10	Y10	Z10	X11	Y11	Z11	X12	Y12	Z12	X13	Y13	Z13	X14	Y14	Z14	X15	Y15	Z15	X16	Y16	Z16	X17	Y17	Z17	X18	Y18	Z18	X19	Y19	Z19	X20	Y20	Z20	X21	Y21	Z21	
74	2.466666666666667	-0.25725546117446324	1.8750606705739594	-0.5232248575685914	-0.27001135046966734	1.8712769319222027	-0.45149270780758216	-0.2856139153089606	1.7109868074303856	-0.40207966612319435													-0.2416284555590425	1.8789421491078793	-0.5999147687976404	-0.2472679511587189	1.72515970689519	-0.600410409990498	-0.21728595850439283	1.6087675146493727	-0.692668347894545										-0.2622172619878098	2.0463623449380766	-0.5340004069200576	-0.24111389529886113	2.122162458142171	-0.5297537700712674	-0.2790930854130622	2.041396438125945	-0.42937197390960585	-0.28560247607419975	1.951186000067873	-0.39546675014185223	-0.2746845360586823	1.8759712910567414	-0.37854211037597496	-0.24104485897750316	2.0516879603813356	-0.6358992405511522	-0.23744926006842215	1.9493767246606346	-0.6590746933749213	-0.23298928107080302	1.8663307637832616	-0.6714859076003427
75	2.5	-0.25704406332258944	1.8723783604676327	-0.5227984890271463	-0.26902161675457037	1.8685148151380224	-0.44793295384863824	-0.2856139153089606	1.7109868074303856	-0.40207966612319435													-0.2415380809556584	1.8773702350266577	-0.5997814753607731	-0.2472679511587189	1.72515970689519	-0.600410409990498	-0.21728595850439283	1.6087675146493727	-0.692668347894545										-0.2641267116808415	2.044960280415902	-0.5314786255458517	-0.2411071382111892	2.122160750593464	-0.52974497476633	-0.27908060615594876	2.0413700104322374	-0.4293689946608091	-0.2897175207906945	1.9489229072545642	-0.3909899757543639	-0.27498350142779127	1.8685984314218609	-0.3687718320749337	-0.24114019856153654	2.0504708223950887	-0.635452531955377	-0.24151382519507752	1.9557766186438932	-0.6545476832109842	-0.23598446513589028	1.8752636838856955	-0.670371982188539
76	2.533333333333333	-0.25622759694247904	1.8764260899664038	-0.5200365354040805	-0.26804347990875477	1.8724180599740197	-0.4451563652478433	-0.2856139153089606	1.7109868074303856	-0.40207966612319435													-0.24691298875948972	1.8817104360684844	-0.5904694790167466	-0.2472679511587189	1.72515970689519	-0.600410409990498	-0.21728595850439283	1.6087675146493727	-0.692668347894545										-0.26417611042788036	2.046502283600278	-0.5317473353948418	-0.24212221015015292	2.1206218532758587	-0.5241120557495931	-0.27905142645122094	2.042500403476511	-0.4291802197329795	-0.29149245372447136	1.950507470440739	-0.3888837107532276	-0.2804342641004489	1.8709623892950977	-0.35391080061409286	-0.2431554128410761	2.050449183234292	-0.6331725725809448	-0.2455783903217329	1.962176512627152	-0.6500206730470471	-0.23897964920097756	1.8841966039881297	-0.6692580567767352
77	2.566666666666667	-0.25408215484869406	1.8764167763602266	-0.5221966103794384	-0.2658617368069113	1.8732827014744304	-0.44741090950496964	-0.2856139153089606	1.7109868074303856	-0.40207966612319435													-0.240428349104056	1.880361621582368	-0.5968656841915783	-0.2472679511587189	1.72515970689519	-0.600410409990498	-0.21728595850439283	1.6087675146493727	-0.692668347894545										-0.2631924849907676	2.046337168155763	-0.5288772260614822	-0.24214304620994637	2.121694342042099	-0.5237548797305045	-0.2780668478999184	2.0423555881247806	-0.4261039546761707	-0.2952286370283203	1.950789681486415	-0.38469179701944706	-0.28643947416668586	1.8722123529763546	-0.34773392883116205	-0.24007230305407015	2.05269227003308	-0.6327831674363981	-0.2453308314956451	1.9612080932965112	-0.6516579653598386	-0.23901142492948327	1.8830437688802977	-0.6706619843088224
78	2.6	-0.2534789247531042	1.8788014742194195	-0.5225085412916526	-0.2632848596905475	1.8740931100475025	-0.4495934668973965	-0.2856139153089606	1.7109868074303856	-0.40207966612319435													-0.2379802279032582	1.881869911352104	-0.5991177510386991	-0.2472679511587189	1.72515970689519	-0.600410409990498	-0.21728595850439283	1.6087675146493727	-0.692668347894545										-0.2630860436957015	2.047392578004711	-0.52882721177263	-0.24400962815135685	2.121876272655002	-0.5215992291608886	-0.2791157506280999	2.043857577049056	-0.42966046052251866	-0.2969677253518057	1.954628316520656	-0.38304079569247473	-0.29530790526310424	1.877525223852455	-0.3378376270771401	-0.23800942877838888	2.0514344241702283	-0.6344879644771368	-0.24508327266955732	1.9602396739658707	-0.6532952576726299	-0.239043200657989	1.8818909337724654	-0.6720659118409096
79	2.6333333333333333	-0.2547956871034245	1.8792918413617936	-0.5256096156175695	-0.266727566784314	1.877775524434584	-0.45128597217939787	-0.2856139153089606	1.7109868074303856	-0.40207966612319435													-0.24250459195308946	1.882761054535544	-0.5950917271013327	-0.2472679511587189	1.72515970689519	-0.600410409990498	-0.21728595850439283	1.6087675146493727	-0.692668347894545										-0.26310424533621796	2.049110155644135	-0.5290309561565143	-0.24502371021294272	2.12296103851342	-0.5170528821712758	-0.2798228498490753	2.0447135884789343	-0.4244357886153598	-0.3008084991523139	1.9546573593473173	-0.3788444731799113	-0.2988754458869614	1.8840746522770146	-0.3346679564744179	-0.23919641232774788	2.054643267746442	-0.6299786986852014	-0.2448357138434695	1.95927125463523	-0.6549325499854213	-0.23907497638649472	1.8807380986646334	-0.6734698393729969
80	2.6666666666666665	-0.2581802714489154	1.87597695726766	-0.5177243122485181	-0.2718601119985995	1.874844144788081	-0.44118568926508933	-0.2856139153089606	1.7109868074303856	-0.40207966612319435													-0.2458404038146703	1.8801030364491567	-0.586972060964731	-0.2472679511587189	1.72515970689519	-0.600410409990498	-0.21728595850439283	1.6087675146493727	-0.692668347894545										-0.2641101184250096	2.05018127386596	-0.5244338216348549	-0.24606204081543515	2.124040298981429	-0.5123867024205292	-0.27990463470192284	2.046010484346988	-0.42485783132589605	-0.3054768073028836	1.9601627768870669	-0.37866413942186633	-0.3031610696200255	1.8904109290049427	-0.340068613127862	-0.24127918772540136	2.0545785340656257	-0.627747224528933	-0.2445881550173817	1.9583028353045893	-0.6565698422982127	-0.23910675211500043	1.8795852635568013	-0.674873766905084
81	2.7	-0.26001409082459864	1.8760167956299498	-0.5067834760817786	-0.27246454623200655	1.8733465641048745	-0.43533717837258	-0.2856139153089606	1.7109868074303856	-0.40207966612319435													-0.24794205783614034	1.8816895770692157	-0.5760819409195546	-0.2472679511587189	1.72515970689519	-0.600410409990498	-0.21728595850439283	1.6087675146493727	-0.692668347894545										-0.26506048317968345	2.0513228767092784	-0.5190722547662506	-0.24801627387278952	2.1223603048854915	-0.5014915262727669	-0.2826828775535683	2.0442729093269163	-0.41695353921782125	-0.30734049108793204	1.961690577549227	-0.3765080432433222	-0.3069886432113775	1.89254878702411	-0.3445007382584939	-0.245378528718862	2.0570304826260304	-0.6235549165747022	-0.253473740823368	1.9721896537019514	-0.6506036346658889	-0.24241082701390398	1.8966573029021	-0.6777010277861202
